<?xml version="1.0" standalone="no"?>
<!DOCTYPE svg PUBLIC "-//W3C//DTD SVG 20010904//EN"
 "http://www.w3.org/TR/2001/REC-SVG-20010904/DTD/svg10.dtd">
<svg version="1.0" xmlns="http://www.w3.org/2000/svg"
 width="2304.000000pt" height="3072.000000pt" viewBox="0 0 2304.000000 3072.000000"
 preserveAspectRatio="xMidYMid meet">

<g transform="translate(0.000000,3072.000000) scale(0.100000,-0.100000)"
fill="#000000" stroke="none">
<path d="M8650 28965 c-130 -19 -190 -36 -312 -90 -235 -103 -555 -301 -913
-565 -254 -187 -344 -268 -599 -538 l-88 -93 -69 58 c-143 118 -211 148 -417
184 -316 54 -684 2 -997 -141 -38 -18 -137 -56 -220 -85 -82 -29 -193 -70
-245 -90 -262 -101 -383 -137 -570 -171 -200 -35 -338 -19 -622 72 -115 37
-204 59 -265 66 -88 10 -94 10 -140 -13 -71 -35 -97 -93 -101 -221 -3 -85 0
-108 23 -180 15 -46 47 -119 70 -163 24 -44 53 -105 66 -135 22 -53 67 -137
111 -209 l21 -34 -58 8 c-87 10 -192 7 -279 -9 -168 -33 -519 -199 -572 -273
-42 -59 -47 -85 -26 -144 31 -88 67 -136 217 -289 138 -140 198 -216 245 -310
45 -89 113 -278 161 -450 27 -96 59 -206 70 -245 35 -116 101 -245 164 -319
l58 -69 2 -131 c1 -109 5 -141 24 -188 22 -56 183 -281 260 -361 34 -36 244
-220 340 -298 34 -28 44 -43 46 -70 2 -19 9 -127 15 -240 l13 -206 -41 -59
c-22 -33 -90 -117 -152 -189 -121 -141 -194 -238 -210 -279 -5 -15 -16 -106
-25 -204 -17 -206 -36 -289 -106 -484 -52 -142 -53 -143 -122 -209 l-70 -67 6
-66 c10 -105 103 -278 288 -537 105 -146 122 -191 122 -313 0 -80 -6 -119 -27
-186 -48 -156 -98 -364 -99 -411 -1 -51 44 -156 114 -266 21 -34 39 -65 39
-68 0 -4 -20 -34 -44 -68 -61 -86 -94 -155 -116 -245 -37 -145 -25 -595 21
-797 16 -66 92 -272 134 -360 81 -168 226 -341 384 -461 113 -85 344 -201 501
-252 127 -41 300 -70 341 -57 20 7 21 4 15 -26 -21 -114 -29 -295 -17 -398 33
-272 97 -449 238 -666 60 -92 255 -310 379 -424 139 -127 369 -293 540 -390
l92 -51 -4 -58 c-2 -31 -7 -102 -12 -157 -19 -203 22 -329 177 -545 34 -47 64
-96 68 -109 3 -13 0 -68 -7 -121 -7 -53 -10 -110 -6 -125 13 -52 64 -90 159
-119 48 -15 87 -29 87 -31 0 -10 -120 -172 -143 -194 -20 -18 -48 -27 -113
-38 -48 -7 -125 -24 -173 -38 -47 -13 -151 -36 -231 -50 -454 -80 -766 -142
-940 -185 -63 -16 -162 -41 -220 -55 -58 -14 -115 -33 -127 -41 -37 -24 -30
-65 21 -127 24 -30 56 -73 71 -96 60 -96 196 -373 224 -456 29 -89 71 -293 71
-347 0 -15 -34 -96 -75 -180 -90 -184 -157 -383 -184 -544 -53 -318 -54 -570
-3 -794 35 -152 98 -342 144 -434 48 -97 136 -224 196 -282 62 -61 198 -135
286 -155 l56 -12 0 -43 c0 -71 -55 -266 -95 -338 -40 -73 -40 -103 2 -136 32
-25 88 -26 247 -5 141 19 491 49 806 70 129 9 273 20 320 25 111 13 310 13
310 0 0 -5 27 -28 60 -50 33 -22 60 -44 60 -49 0 -5 12 -26 27 -47 15 -22 32
-67 39 -104 15 -75 18 -236 5 -244 -5 -4 -12 -25 -16 -48 -4 -23 -16 -67 -27
-97 -30 -88 -47 -167 -98 -471 -27 -157 -64 -361 -84 -455 -19 -93 -46 -258
-61 -365 -14 -107 -28 -201 -30 -208 -21 -59 -60 -354 -110 -817 -14 -132 -35
-321 -46 -420 -70 -636 -91 -842 -114 -1150 -49 -639 -53 -780 -34 -1060 11
-165 3 -271 -27 -359 -8 -21 -14 -45 -14 -53 0 -21 46 -63 69 -63 10 0 58 -18
105 -41 l85 -41 -20 -51 c-12 -29 -45 -122 -75 -207 -29 -85 -78 -205 -109
-266 -46 -92 -71 -127 -146 -208 -50 -53 -119 -117 -153 -143 -210 -159 -290
-247 -374 -416 -85 -167 -121 -329 -122 -542 0 -78 31 -306 49 -355 5 -14 12
-37 15 -52 8 -35 78 -103 136 -132 68 -35 250 -92 385 -122 66 -14 158 -37
205 -50 150 -43 313 -62 695 -80 138 -7 619 11 745 27 41 5 109 14 150 19 90
12 343 28 615 40 208 9 497 33 600 51 97 16 208 40 236 50 21 8 35 4 83 -25
32 -19 86 -44 120 -55 92 -31 479 -89 666 -101 91 -5 190 -15 220 -20 85 -16
598 -23 855 -12 193 9 247 15 333 37 109 27 329 127 497 224 50 28 230 122
400 208 171 85 315 159 320 163 11 9 253 130 347 174 31 15 107 61 170 103 62
41 131 84 154 93 56 24 79 68 99 187 26 159 40 550 26 733 -33 423 -88 801
-130 878 -8 15 1 23 52 50 34 17 79 46 100 63 l38 32 -5 186 c-10 309 -29 558
-66 866 -10 88 -24 230 -30 315 -19 288 -60 621 -115 940 -42 243 -58 351
-105 705 -24 180 -65 425 -95 580 -19 94 -39 195 -44 225 -38 205 -120 578
-168 760 -30 118 -75 298 -98 400 -23 102 -65 273 -93 380 -27 107 -52 220
-53 252 l-4 56 60 52 c125 108 174 175 267 361 107 212 228 477 236 515 7 34
9 26 16 -63 17 -235 -37 -500 -171 -832 -29 -73 -32 -89 -23 -117 15 -44 89
-110 158 -141 63 -27 362 -143 457 -176 86 -30 304 -142 415 -214 52 -34 144
-85 203 -114 90 -44 127 -70 215 -150 162 -146 242 -226 316 -316 64 -78 136
-133 175 -133 27 0 80 38 101 72 105 170 178 895 136 1338 -34 357 -117 782
-246 1264 -48 176 -174 576 -210 666 -10 25 -40 99 -66 165 -117 300 -198 465
-494 1015 -420 780 -467 883 -660 1440 -127 364 -170 481 -201 547 l-30 62 46
135 c56 167 60 230 17 321 -46 96 -120 175 -263 282 -71 53 -126 100 -122 104
4 4 78 50 163 102 402 245 588 379 753 541 l98 96 38 -19 c55 -29 183 -58 281
-66 202 -16 586 44 848 131 154 51 350 146 478 230 129 85 436 394 575 579
132 175 176 245 239 378 92 196 140 387 140 562 0 56 4 72 24 95 12 15 42 75
64 132 61 153 122 259 204 354 255 298 276 325 288 380 12 52 -11 174 -60 319
-40 117 -90 337 -90 393 0 15 15 53 33 83 86 140 106 171 181 279 91 129 186
308 186 349 0 15 -12 51 -26 80 -27 54 -78 101 -169 154 -44 26 -47 30 -40 60
3 18 10 86 15 152 24 304 41 350 179 474 149 133 205 194 256 276 81 133 228
355 299 450 87 117 104 170 82 255 -9 33 -32 96 -52 140 l-37 80 36 147 c49
203 74 387 92 688 3 50 12 151 20 225 37 345 47 568 49 1050 2 461 1 485 -17
503 -13 13 -30 18 -55 16 -123 -10 -554 62 -643 107 -72 36 -196 122 -289 200
-47 39 -128 102 -181 140 -125 89 -308 219 -434 308 -269 189 -814 631 -949
770 -115 117 -318 384 -387 507 -90 160 -133 177 -237 90 -26 -21 -74 -54
-107 -72 -143 -79 -450 -291 -570 -394 -33 -28 -123 -105 -200 -170 -77 -65
-171 -148 -210 -185 -38 -36 -75 -70 -82 -74 -8 -4 -40 50 -100 170 -74 149
-94 180 -123 198 -60 36 -331 156 -430 191 -211 74 -274 101 -495 209 -296
145 -417 218 -1168 710 -305 200 -629 376 -842 459 -49 20 -130 54 -180 77
-153 71 -252 98 -539 145 -463 78 -615 110 -880 187 -159 46 -180 50 -296 53
-69 2 -226 5 -350 8 -166 5 -250 2 -320 -8z m-2403 -1179 c97 -18 168 -38 214
-61 33 -17 126 -90 217 -170 58 -51 246 -276 280 -335 134 -235 172 -286 277
-377 222 -191 293 -234 675 -416 246 -118 345 -149 740 -233 36 -7 105 -28
154 -46 75 -28 102 -44 173 -107 47 -41 117 -118 157 -171 63 -83 76 -109 96
-181 31 -112 35 -196 16 -318 -18 -117 -21 -294 -5 -408 19 -141 166 -410 354
-648 39 -49 75 -96 80 -104 13 -22 -303 235 -375 305 -85 83 -132 104 -235
104 -110 0 -177 -13 -297 -56 -162 -57 -247 -99 -257 -127 -7 -18 -22 -26 -64
-37 -108 -25 -215 7 -376 113 -184 123 -238 155 -322 192 -127 56 -261 103
-345 120 -107 22 -298 132 -352 203 -97 126 -197 240 -351 397 -97 99 -216
230 -265 290 -168 206 -275 320 -548 585 -266 258 -276 266 -373 315 -99 50
-100 50 -195 50 -231 -1 -515 -26 -745 -64 -66 -11 -192 -30 -280 -41 -88 -11
-188 -25 -222 -31 -34 -6 -124 -9 -200 -7 -113 3 -151 8 -212 28 -57 19 -76
31 -84 50 -6 14 -36 52 -67 85 -36 40 -70 93 -100 155 -25 52 -68 140 -96 195
-86 167 -113 289 -83 375 l12 33 81 -6 c58 -4 113 -17 193 -46 196 -71 386
-111 520 -111 167 0 437 63 693 160 74 28 205 76 290 106 85 31 209 78 275
106 159 67 210 84 335 113 148 33 136 32 345 34 127 1 217 -4 272 -13z m2893
-36 c223 -20 294 -37 455 -105 459 -195 560 -238 660 -283 61 -27 184 -80 275
-117 91 -37 230 -98 310 -135 160 -76 457 -193 592 -235 48 -15 124 -46 170
-69 90 -45 336 -202 543 -348 391 -274 672 -433 905 -514 122 -43 166 -72 305
-198 122 -111 184 -193 268 -352 41 -76 129 -238 197 -359 67 -121 154 -281
193 -355 38 -74 92 -172 119 -217 26 -45 78 -141 114 -214 37 -73 94 -178 128
-233 99 -160 285 -498 338 -615 65 -140 118 -304 120 -366 3 -74 -20 -285 -42
-406 -19 -99 -70 -242 -129 -357 -12 -23 -25 -59 -29 -79 l-8 -38 -65 3 c-103
5 -344 31 -479 53 -69 11 -240 33 -380 49 -218 25 -808 114 -818 124 -7 7 59
25 134 36 44 6 109 16 146 21 78 12 200 67 222 101 8 13 18 36 21 51 5 17 24
39 54 59 124 85 161 129 161 194 0 75 -67 141 -227 224 -46 23 -96 58 -113 76
-30 34 -30 36 -30 152 0 64 -5 133 -10 153 -14 49 -49 100 -87 124 -30 19 -32
23 -31 80 1 90 -33 150 -106 187 -54 28 -122 20 -221 -26 -48 -22 -75 -30 -72
-22 27 70 29 94 13 143 -9 27 -40 90 -68 139 -49 84 -52 94 -56 169 -3 71 0
89 29 165 60 158 41 287 -54 363 -47 39 -130 48 -203 23 -26 -9 -48 -15 -49
-13 -1 1 -7 22 -14 45 -16 58 -79 124 -144 153 -73 33 -179 33 -224 1 -39 -28
-70 -76 -97 -155 l-21 -60 -85 -27 c-212 -65 -290 -141 -290 -281 0 -31 -6
-51 -17 -60 -24 -20 -73 -129 -73 -162 l0 -29 -35 22 c-24 15 -43 20 -63 15
-27 -6 -28 -4 -51 67 -36 114 -77 184 -119 204 -31 14 -46 15 -116 5 -131 -18
-141 -16 -210 35 -146 111 -244 116 -296 15 -11 -22 -22 -58 -26 -81 -9 -53
-46 -98 -88 -105 -42 -8 -144 27 -376 132 -220 99 -315 155 -449 266 -171 142
-157 122 -171 238 -13 105 -9 229 12 337 19 105 14 227 -15 340 -15 57 -34
118 -43 135 -34 67 -159 220 -237 290 -107 96 -129 111 -223 147 -76 30 -137
46 -419 110 -71 16 -175 45 -230 64 -136 47 -587 264 -649 311 -12 9 -16 18
-10 23 5 5 45 40 89 77 44 37 150 132 235 211 85 79 196 173 245 210 50 36
128 101 175 143 92 83 289 241 357 285 23 16 59 34 80 42 47 16 241 18 403 4z
m-3680 -1258 c66 -33 104 -65 328 -282 256 -247 408 -410 549 -588 43 -53 154
-176 249 -272 156 -159 286 -301 280 -307 -1 -1 -18 2 -37 7 -84 23 -165 27
-303 14 -232 -23 -522 -33 -652 -24 -191 14 -509 101 -694 189 -87 42 -159 43
-189 5 -26 -33 -26 -45 -1 -76 13 -18 33 -27 64 -31 25 -4 72 -20 103 -36 118
-59 443 -154 620 -180 135 -21 445 -12 786 21 117 11 135 10 200 -6 135 -34
499 -195 501 -221 1 -16 -103 -62 -178 -79 -46 -11 -119 -16 -225 -16 -143 0
-226 -9 -372 -39 -42 -9 -251 -89 -479 -184 -47 -20 -148 -66 -224 -102 -228
-109 -489 -175 -689 -175 -120 0 -520 68 -767 130 -449 114 -612 158 -628 172
-9 8 -45 31 -78 51 -41 25 -95 73 -160 145 -118 129 -166 222 -218 419 -60
223 -85 307 -131 428 -99 261 -153 345 -344 535 -141 141 -210 233 -198 264 8
21 153 105 257 148 225 95 318 109 516 84 88 -11 178 -30 244 -52 232 -74 319
-71 985 31 213 33 411 55 515 56 47 1 112 5 145 9 88 11 141 2 225 -38z
m10543 -719 c23 -27 89 -98 147 -158 58 -61 165 -175 238 -253 74 -78 227
-229 340 -334 114 -106 275 -256 357 -333 83 -78 213 -195 290 -260 77 -66
196 -171 265 -235 69 -64 170 -154 225 -202 120 -103 227 -212 248 -253 9 -16
29 -60 46 -96 41 -88 87 -138 231 -250 l122 -94 -7 -65 c-9 -97 -41 -272 -70
-385 -35 -138 -33 -171 15 -275 22 -48 43 -107 46 -131 6 -41 3 -48 -42 -109
-27 -36 -58 -78 -69 -95 -98 -140 -161 -236 -215 -325 -85 -140 -110 -170
-227 -270 -55 -47 -115 -104 -134 -127 -50 -62 -96 -160 -108 -228 -15 -86
-34 -352 -27 -380 l6 -24 -62 26 c-34 13 -102 45 -152 70 -116 58 -389 182
-531 240 -137 56 -303 167 -485 324 -36 30 -114 93 -173 139 -60 45 -111 90
-115 98 -3 9 5 45 18 81 16 44 25 95 28 161 6 131 -18 239 -128 570 -101 301
-113 366 -130 655 -19 337 -33 379 -232 709 -162 267 -213 365 -413 796 -32
69 -129 266 -216 438 -118 233 -154 312 -142 312 15 0 188 63 248 90 31 14
214 70 228 70 7 0 105 30 217 66 194 62 262 80 303 83 10 1 37 -20 60 -46z
m-8427 -1141 c123 -46 207 -91 355 -189 238 -160 312 -188 462 -179 56 3 125
9 153 12 l51 6 26 -94 c15 -52 27 -101 27 -109 0 -24 -94 -153 -158 -215 -154
-152 -558 -393 -1167 -697 -187 -93 -422 -204 -523 -247 l-182 -77 -103 29
c-245 70 -373 111 -481 153 -303 118 -445 143 -1026 180 -129 8 -262 20 -296
28 -143 31 -613 363 -922 651 -74 70 -244 287 -272 349 -11 23 -20 59 -20 81
l0 38 34 -30 c23 -20 56 -34 107 -46 129 -30 230 -55 364 -91 297 -81 504
-127 735 -167 202 -34 267 -41 370 -41 242 1 510 73 778 207 48 24 123 58 167
76 509 205 526 210 820 215 251 4 339 27 500 135 50 33 97 58 105 56 8 -3 51
-18 96 -34z m2032 -71 c57 -40 199 -113 345 -177 84 -37 164 -73 180 -81 l27
-14 -73 -58 c-83 -66 -132 -121 -149 -168 -7 -18 -14 -33 -18 -33 -3 0 -17 10
-32 23 -22 18 -31 38 -44 102 -18 86 -20 90 -149 257 -133 170 -145 190 -87
149z m-463 -91 c21 -11 52 -36 68 -56 17 -20 83 -78 146 -129 64 -51 144 -115
179 -143 83 -68 314 -231 377 -267 28 -16 82 -58 120 -95 39 -36 88 -80 110
-98 l39 -32 -2 -70 c-5 -110 34 -166 141 -200 20 -6 37 -13 37 -15 0 -1 -15
-28 -34 -60 -38 -62 -56 -129 -56 -204 l0 -47 -78 -56 c-95 -68 -187 -165
-227 -238 -24 -45 -29 -67 -30 -120 0 -36 4 -75 8 -86 7 -20 -3 -28 -100 -82
-59 -33 -151 -81 -203 -107 -52 -26 -160 -85 -240 -130 -447 -253 -902 -501
-974 -530 -46 -18 -130 -48 -187 -65 -57 -18 -194 -61 -304 -95 -110 -35 -235
-73 -278 -84 -76 -21 -144 -46 -377 -138 -177 -71 -713 -239 -880 -277 -58
-13 -269 -78 -470 -144 -612 -203 -701 -232 -815 -263 -170 -47 -548 -180
-627 -220 -107 -55 -248 -158 -333 -245 -83 -85 -92 -97 -113 -165 -21 -68
-27 -78 -78 -118 -31 -24 -60 -56 -66 -72 -5 -16 -13 -29 -17 -29 -11 0 -108
178 -116 212 -7 26 36 208 91 388 32 104 43 270 24 351 -15 67 -73 177 -142
271 -61 83 -195 292 -226 355 -12 22 -24 59 -28 81 -6 36 -4 41 27 64 19 14
49 31 67 38 21 8 34 21 38 39 16 67 320 329 425 367 24 8 120 26 213 40 94 14
172 27 175 29 3 2 60 13 126 24 66 12 192 42 280 66 88 24 196 51 240 59 229
42 305 59 470 105 251 69 410 128 683 252 35 16 66 29 69 29 3 0 19 7 36 14
32 15 152 66 502 214 584 247 1410 698 1688 922 82 65 187 188 232 271 37 69
35 115 -10 277 -20 74 -33 137 -29 141 20 17 197 73 256 80 103 14 132 12 173
-9z m2582 -1099 c28 -42 29 -55 3 -81 -29 -29 -64 -25 -94 11 -37 43 -34 72 9
97 31 18 57 10 82 -27z m-7181 -218 c111 -59 216 -76 580 -93 395 -18 555 -49
880 -168 104 -39 234 -82 289 -97 55 -16 103 -31 107 -34 9 -8 -471 -214 -631
-271 -162 -58 -458 -135 -632 -166 -82 -14 -188 -36 -236 -50 -268 -74 -412
-104 -683 -145 -227 -33 -259 -46 -419 -164 -59 -43 -101 -69 -97 -59 34 88
57 232 72 437 6 92 9 102 45 155 21 31 75 100 120 152 136 157 198 239 231
304 29 57 30 65 24 141 -4 44 -9 128 -13 188 l-6 108 154 -103 c85 -57 182
-117 215 -135z m6907 140 c9 -9 17 -26 17 -38 0 -32 -37 -75 -65 -75 -28 0
-65 43 -65 76 0 36 36 67 68 59 15 -4 35 -14 45 -22z m510 -17 c36 -33 44 -71
22 -96 -42 -46 -115 -4 -115 64 0 59 47 75 93 32z m-333 -56 c26 -26 25 -32
-6 -69 -29 -35 -63 -40 -89 -15 -20 21 -13 62 17 87 27 22 53 22 78 -3z m158
-36 c44 -31 14 -144 -38 -144 -27 0 -60 47 -60 85 0 31 19 56 50 68 23 8 24 8
48 -9z m-314 -119 c22 -33 20 -71 -4 -95 -59 -59 -143 28 -94 98 22 32 76 30
98 -3z m431 -7 c46 -21 46 -102 1 -114 -24 -6 -65 10 -78 30 -15 22 -7 55 18
75 31 25 27 24 59 9z m-220 -31 c21 -30 18 -67 -7 -94 -44 -47 -98 -15 -98 59
0 30 5 40 27 51 32 17 59 12 78 -16z m-1545 -637 c36 -12 84 -30 107 -40 38
-18 42 -23 49 -67 22 -153 98 -233 221 -233 97 1 177 59 269 196 97 144 145
170 222 120 20 -14 50 -28 65 -32 21 -5 26 -11 22 -23 -4 -9 -25 -70 -47 -136
-91 -269 -38 -387 224 -493 21 -9 39 -37 82 -125 81 -169 131 -211 248 -210
54 1 84 9 160 41 51 22 131 47 178 57 157 30 235 62 288 116 45 46 66 116 59
197 l-7 65 74 71 c78 75 100 109 111 168 9 45 -14 127 -61 220 -19 37 -33 68
-32 68 2 0 26 -12 53 -25 43 -22 62 -26 135 -24 64 1 110 -5 185 -25 164 -43
701 -127 995 -156 63 -6 171 -20 239 -31 260 -41 383 -55 666 -74 87 -6 194
-18 470 -51 72 -8 218 -21 325 -29 107 -7 227 -20 266 -29 89 -21 212 -94 331
-197 49 -41 133 -110 188 -152 55 -42 140 -110 188 -151 168 -141 327 -244
476 -307 198 -83 442 -193 515 -232 35 -19 117 -56 182 -82 187 -75 268 -122
293 -169 18 -33 -25 -120 -160 -321 -189 -283 -202 -305 -216 -369 -13 -55
-13 -71 7 -176 12 -63 43 -185 70 -270 60 -189 76 -270 59 -302 -12 -23 -126
-162 -240 -293 -83 -95 -111 -137 -174 -261 -30 -59 -55 -104 -55 -101 0 20
-34 181 -47 222 -22 69 -91 202 -165 317 -69 107 -323 390 -392 437 -66 46
-195 108 -261 126 -82 22 -272 29 -435 16 l-135 -10 -160 54 c-88 29 -239 77
-335 105 -205 62 -244 75 -410 146 -69 29 -210 80 -315 114 -235 76 -342 114
-515 180 -140 53 -177 68 -425 168 -375 151 -717 267 -1000 338 -77 19 -228
64 -335 99 -233 76 -410 129 -620 185 -85 22 -193 55 -240 72 -101 36 -359
117 -597 187 -94 28 -227 73 -295 100 -67 27 -181 70 -253 95 -71 26 -184 67
-250 91 -188 69 -420 136 -535 155 -100 15 -250 12 -415 -10 -240 -32 -376
-47 -368 -39 7 6 443 249 613 341 36 20 106 59 155 88 50 29 168 93 264 142
95 50 208 110 250 134 83 48 86 49 191 14z m-670 -815 c119 -23 263 -66 445
-132 99 -36 218 -78 265 -93 47 -15 159 -57 250 -93 91 -35 215 -79 275 -97
276 -81 538 -163 627 -195 53 -19 175 -55 270 -80 211 -57 314 -87 571 -171
108 -35 252 -78 320 -95 203 -51 414 -115 572 -174 83 -31 182 -67 220 -81 39
-13 153 -56 254 -96 l184 -73 63 -130 c109 -225 238 -571 305 -820 63 -233 99
-503 100 -748 0 -156 2 -170 21 -189 16 -16 29 -19 65 -15 64 7 128 55 281
211 72 74 173 170 225 215 51 45 129 125 173 178 43 54 97 118 120 143 22 25
61 71 87 103 46 58 47 58 56 34 21 -53 42 -197 48 -316 7 -143 17 -161 88
-161 35 0 49 7 98 51 58 52 197 219 244 292 71 112 141 264 187 404 9 28 23
54 31 57 70 26 301 12 403 -26 125 -46 183 -90 329 -249 181 -197 299 -376
344 -521 22 -68 65 -318 75 -428 14 -162 -34 -381 -125 -573 -105 -223 -256
-423 -505 -672 -226 -226 -323 -294 -569 -399 -137 -58 -240 -88 -447 -131
-150 -31 -201 -37 -355 -42 -163 -5 -188 -3 -264 16 -46 12 -105 33 -130 46
-45 22 -69 29 -102 26 -8 0 -70 -55 -138 -121 -151 -146 -328 -280 -571 -432
-544 -339 -770 -460 -1310 -699 -339 -151 -336 -149 -662 -264 -351 -124 -472
-160 -794 -240 -478 -118 -667 -151 -954 -164 -357 -17 -1040 16 -1325 64 -49
9 -142 29 -205 45 -63 16 -193 43 -289 60 -99 17 -228 48 -300 72 -125 40
-419 153 -581 223 -47 20 -157 66 -245 102 -88 35 -225 95 -305 133 -80 37
-183 85 -230 105 -96 43 -359 177 -465 238 -168 96 -374 250 -517 385 -350
332 -499 594 -542 952 -21 184 -4 345 68 608 20 74 36 140 36 148 0 7 -20 45
-44 82 -48 75 -174 332 -237 482 -22 52 -46 109 -54 125 -7 17 -32 84 -56 150
l-42 120 -1 185 c0 208 9 298 60 550 57 288 104 433 237 735 115 260 158 337
198 356 35 17 127 47 424 139 94 28 262 85 375 125 113 40 259 85 325 99 153
34 706 208 895 281 80 30 179 69 221 85 42 16 112 39 155 50 43 12 162 49 262
82 158 52 187 59 209 49 14 -6 33 -9 42 -7 59 19 390 67 616 91 77 8 174 20
215 26 177 24 209 27 285 22 44 -3 109 -11 145 -18z m-5520 -1945 c-5 -18 -17
-94 -25 -169 -15 -130 -15 -136 3 -160 21 -29 77 -40 112 -21 11 6 58 68 105
138 101 152 164 227 165 197 0 -43 94 -312 161 -468 39 -89 100 -229 135 -312
35 -82 73 -166 84 -186 11 -20 20 -42 20 -48 0 -17 67 -194 101 -269 16 -35
29 -66 29 -68 0 -15 187 -400 226 -465 l28 -46 -18 -87 -19 -86 -72 0 c-274 0
-682 190 -897 418 -117 124 -180 231 -256 433 -78 210 -97 334 -97 639 1 241
7 285 60 390 24 47 154 215 161 208 2 -3 -1 -19 -6 -38z m9593 -4129 c29 -21
63 -41 77 -45 69 -16 219 -177 241 -258 13 -49 8 -74 -31 -153 -34 -69 -118
-356 -125 -424 -2 -25 -9 -47 -15 -49 -15 -5 -12 -147 5 -187 8 -20 37 -60 66
-90 47 -50 51 -57 45 -89 -7 -39 -61 -122 -114 -178 -35 -37 -55 -43 -202 -62
-19 -3 -66 -12 -105 -20 -91 -20 -301 -29 -440 -19 l-110 8 56 45 c31 25 59
55 62 68 2 12 -11 64 -30 115 -19 51 -39 106 -45 124 -18 52 -38 47 -140 -33
-51 -41 -96 -74 -100 -74 -3 0 -11 -13 -16 -30 -10 -28 4 -82 53 -201 6 -15
-11 -18 -162 -24 -92 -3 -179 -11 -193 -16 -30 -11 -102 -12 -257 -4 l-113 7
-44 46 c-25 26 -58 62 -75 79 -17 18 -31 31 -31 29 0 -3 -23 11 -51 30 -28 19
-58 34 -66 34 -33 0 -85 -38 -189 -142 l-112 -111 -78 -15 c-44 -8 -133 -16
-199 -17 -66 -1 -147 -7 -180 -13 -94 -17 -249 -26 -242 -14 4 6 -49 8 -151 4
l-158 -5 -25 83 c-18 61 -29 84 -45 90 -28 11 -253 -60 -266 -83 -5 -11 -5
-31 1 -54 6 -20 9 -38 8 -39 -8 -8 -355 -3 -457 6 -69 6 -145 11 -170 11 -81
-1 -424 40 -455 53 -39 18 -210 47 -300 51 -39 2 -102 10 -140 19 -39 9 -88
21 -110 26 -154 35 -185 43 -225 57 -25 9 -52 22 -60 29 -8 7 -51 23 -95 36
l-79 23 79 5 c65 4 80 8 83 22 5 28 -67 241 -90 265 -20 22 -29 23 -152 23
-167 0 -167 0 -125 -126 16 -49 33 -101 38 -115 8 -25 7 -26 -18 -19 -14 4
-107 31 -206 60 -99 29 -204 59 -232 67 -29 9 -53 22 -53 29 0 7 -12 26 -26
43 -25 30 -28 31 -117 31 -51 1 -111 5 -134 9 -23 5 -44 5 -45 1 -2 -3 -33
-20 -71 -38 l-67 -31 -96 29 c-52 16 -100 32 -105 36 -6 3 -9 50 -7 112 4 158
-2 181 -59 259 -28 37 -68 95 -89 128 -20 33 -43 65 -50 70 -6 6 -20 33 -30
60 -20 52 -26 210 -11 285 l7 35 174 -86 c96 -48 190 -99 209 -113 18 -14 37
-26 41 -26 7 0 28 -9 179 -79 37 -17 72 -29 76 -27 10 7 171 -59 180 -72 7
-11 313 -122 336 -122 8 0 17 -12 21 -27 25 -115 34 -120 193 -108 71 5 133
13 137 18 14 13 60 7 134 -18 82 -28 222 -65 345 -90 43 -10 88 -23 100 -30
27 -17 283 -77 296 -69 6 3 32 0 59 -6 72 -17 345 -50 500 -60 105 -6 137 -6
145 4 20 25 201 42 324 31 74 -7 75 -7 48 -23 -29 -18 -36 -59 -18 -104 5 -13
19 -50 31 -83 32 -88 40 -103 61 -108 11 -3 66 18 129 50 101 50 110 57 116
88 3 18 1 41 -4 52 -6 10 -19 44 -30 76 l-20 57 48 0 c61 0 290 25 394 44 54
9 87 11 101 4 16 -7 35 -3 77 16 31 14 63 26 71 26 8 0 40 9 73 21 61 21 539
146 609 159 57 10 249 71 255 81 7 11 458 159 484 159 14 0 17 -5 12 -24 -8
-33 94 -253 120 -258 10 -2 46 15 79 37 34 22 82 53 107 68 55 34 64 59 39
112 -63 133 -72 158 -65 165 5 4 50 24 101 44 50 20 151 63 224 96 73 32 136
57 139 55 3 -2 20 -33 39 -69 23 -45 41 -68 56 -72 23 -6 94 28 175 83 19 12
40 23 47 23 7 0 16 12 19 27 5 20 -1 42 -25 87 -18 33 -29 62 -24 64 4 2 46
25 93 52 47 26 89 49 93 49 4 1 31 -16 60 -38z m352 -1011 c-3 -4 4 -34 15
-65 l20 -58 -49 44 c-55 49 -62 78 -39 166 l11 46 23 -63 c13 -34 22 -66 19
-70z m144 -393 c23 -67 41 -132 41 -145 0 -30 75 -223 99 -254 24 -31 102
-209 95 -219 -7 -12 200 -423 247 -491 11 -14 19 -32 19 -40 0 -7 10 -29 21
-48 12 -19 37 -64 56 -100 19 -36 43 -72 54 -81 33 -30 339 -613 339 -648 0
-12 18 -60 39 -108 22 -48 38 -89 36 -91 -2 -2 -38 21 -79 52 -102 76 -114 75
-241 -18 -58 -42 -101 -81 -103 -92 -2 -14 19 -34 73 -74 42 -30 88 -65 103
-77 46 -38 77 -30 184 47 54 39 99 70 102 70 6 0 71 -163 121 -305 24 -66 52
-136 64 -156 12 -20 20 -47 19 -60 -2 -27 71 -271 83 -279 9 -6 61 -200 103
-380 15 -63 31 -131 36 -150 5 -19 12 -59 16 -87 6 -52 6 -53 -20 -53 -14 0
-50 -17 -79 -37 -28 -20 -78 -55 -109 -76 -63 -43 -73 -69 -35 -88 12 -7 24
-15 27 -18 3 -4 28 -20 55 -36 28 -16 56 -34 63 -41 6 -7 21 -16 32 -19 11 -3
20 -10 20 -15 0 -12 69 -5 83 9 17 17 27 13 27 -13 0 -13 6 -42 14 -64 22 -61
39 -229 40 -382 1 -208 -7 -504 -14 -515 -7 -11 -30 -226 -35 -328 -3 -72 -40
-237 -59 -262 -11 -15 -19 -9 -71 57 -32 40 -104 117 -159 172 -56 54 -100
102 -99 106 5 18 -191 180 -217 180 -21 0 -198 88 -256 127 -32 22 -108 68
-168 102 -61 34 -115 69 -120 76 -13 18 -257 115 -287 115 -12 0 -36 9 -53 19
-34 20 -87 43 -211 90 -44 17 -94 40 -112 50 l-32 20 30 76 c16 42 29 85 29
97 0 27 60 220 74 237 6 8 20 61 31 118 l20 103 53 -47 c29 -26 62 -47 75 -48
32 -3 231 134 235 161 2 16 -20 43 -88 105 -50 46 -102 87 -115 90 -18 5 -40
-4 -89 -37 l-66 -44 0 92 c0 51 -7 122 -15 158 -49 215 -48 196 -19 290 14 47
30 89 34 94 8 8 111 -1 283 -25 43 -6 74 -6 86 0 20 11 51 108 51 159 0 17 -4
42 -10 56 -5 14 -12 73 -15 133 -7 134 -24 274 -34 288 -4 5 -14 57 -20 115
-7 58 -24 172 -37 253 -14 81 -22 152 -19 156 2 5 -4 59 -15 121 -23 124 -26
112 38 156 39 28 28 56 -42 109 -52 39 -66 55 -71 84 -4 20 -15 54 -25 76 -10
22 -30 83 -45 135 -39 136 -98 293 -172 459 -36 81 -61 151 -57 160 3 9 50 51
105 95 77 60 99 83 97 99 -2 15 -37 41 -115 88 -123 73 -141 76 -199 33 l-32
-23 -36 58 c-38 62 -39 91 -3 91 83 0 230 186 267 338 16 63 31 43 79 -101z
m-6744 65 c295 -89 539 -162 635 -188 47 -12 126 -37 175 -54 79 -27 155 -47
300 -80 22 -5 51 -11 65 -15 103 -24 510 -90 668 -107 l192 -22 0 -26 c0 -15
-9 -111 -20 -213 -18 -166 -21 -259 -23 -914 -2 -656 10 -1201 29 -1363 5 -42
2 -49 -43 -105 -73 -91 -88 -147 -87 -330 1 -216 10 -230 166 -271 66 -18 66
-18 72 -58 7 -49 25 -839 19 -846 -2 -2 -140 -5 -306 -5 -166 0 -307 -3 -313
-7 -5 -4 -28 -3 -50 2 -22 5 -243 14 -490 20 -433 10 -584 19 -669 39 -145 35
-133 27 -191 123 -6 10 -19 28 -30 39 l-19 22 225 -7 c134 -3 261 -2 315 4 50
6 142 15 205 20 l115 10 45 48 c45 49 66 92 136 282 74 199 104 388 111 696 6
234 -9 554 -32 719 -44 303 -75 483 -101 566 -4 14 16 17 158 22 281 11 331
29 383 132 25 50 31 75 33 146 6 148 -36 211 -161 239 -35 7 -483 40 -563 40
-6 0 -24 30 -39 68 -70 167 -167 343 -317 574 -82 125 -89 140 -84 175 12 79
-22 126 -64 88 -18 -16 -21 -14 -67 51 -190 267 -241 328 -303 359 -67 34
-139 40 -309 26 -80 -7 -183 -16 -228 -20 -87 -7 -106 0 -50 18 17 6 61 36 97
67 105 91 130 104 175 100 22 -1 130 -30 240 -64z m64 -299 c324 -328 597
-793 779 -1328 104 -306 149 -523 202 -990 62 -550 49 -973 -41 -1301 -23 -84
-85 -242 -103 -261 -8 -8 -118 -15 -376 -23 -397 -11 -615 -23 -870 -45 -91
-8 -262 -22 -380 -30 -350 -25 -697 -55 -815 -70 -60 -8 -115 -15 -121 -15 -6
0 -1 29 13 73 30 91 42 142 56 241 l12 78 76 27 c42 15 108 46 146 69 49 29
80 42 107 42 55 0 278 56 339 85 116 55 205 148 230 242 10 37 19 48 63 73 83
46 118 84 155 162 32 68 34 80 34 173 0 97 -1 102 -39 171 l-38 71 34 44 c82
108 103 229 67 387 -12 53 -31 115 -42 137 -37 76 -150 201 -226 252 -2 1 8
30 23 63 21 47 29 83 33 155 6 88 4 96 -24 157 -17 35 -45 81 -64 103 -84 95
-391 253 -565 289 -185 39 -383 42 -484 9 -56 -19 -139 -71 -211 -134 l-56
-48 -18 87 c-25 120 -58 225 -100 310 -19 40 -35 75 -35 77 0 8 -151 278 -172
308 -11 16 -19 29 -17 31 2 1 81 21 174 44 240 59 521 116 905 182 91 16 237
43 325 59 88 17 174 31 192 31 17 0 43 4 58 10 66 25 426 67 588 69 l119 1 67
-67z m6133 -70 c86 -94 259 -431 396 -776 36 -88 112 -337 137 -442 8 -38 20
-86 25 -105 36 -135 108 -555 146 -855 25 -192 39 -494 24 -508 -24 -22 -435
79 -695 171 -241 84 -260 96 -403 244 -126 130 -392 359 -500 430 -31 21 -94
63 -139 93 l-81 55 -47 122 c-204 531 -264 666 -330 734 -43 46 -68 53 -99 31
-16 -12 -25 -7 -80 48 -33 34 -74 70 -89 81 l-29 20 177 175 c97 95 190 193
206 216 36 52 37 94 4 152 -14 23 -25 47 -25 51 0 7 50 16 110 21 8 0 53 5 99
10 46 6 294 14 550 19 329 7 487 14 536 24 39 7 73 14 76 15 3 0 17 -11 31
-26z m-2359 -172 c-205 -234 -325 -359 -356 -372 -17 -7 -90 -40 -162 -74 -71
-35 -157 -74 -189 -89 -121 -54 -226 -135 -391 -300 -222 -223 -360 -427 -436
-644 -114 -327 -118 -349 -116 -630 1 -169 -1 -194 -16 -209 -14 -14 -17 -15
-18 -3 -37 698 -34 1898 7 2225 l17 140 596 1 c576 1 964 14 1012 33 13 5 48
10 77 10 l54 1 -79 -89z m304 -510 c81 -20 195 -70 208 -91 3 -6 24 -19 46
-31 74 -37 168 -144 251 -284 99 -168 120 -211 179 -368 68 -176 79 -257 55
-380 -42 -206 -153 -449 -293 -642 -52 -71 -54 -106 -10 -139 26 -19 30 -19
55 -6 52 30 180 228 268 415 44 94 98 259 109 333 4 24 13 46 20 49 22 8 93
-40 281 -191 218 -174 276 -226 473 -420 216 -213 361 -422 412 -596 45 -156
35 -495 -20 -640 -80 -212 -346 -484 -549 -560 -160 -61 -347 -78 -477 -45
-76 19 -268 97 -363 147 -272 143 -647 478 -776 692 l-35 58 60 30 c72 36 129
88 129 117 0 27 -42 71 -68 71 -11 0 -37 -12 -58 -27 -102 -69 -223 -101 -415
-110 -230 -10 -444 31 -598 114 -46 26 -101 56 -122 67 -55 30 -287 216 -337
270 -127 138 -202 331 -221 569 -8 97 -6 247 3 247 1 0 24 -9 53 -20 101 -38
335 -101 365 -98 20 2 38 13 52 31 19 26 19 30 6 54 -20 34 -18 33 -219 93
-96 28 -189 59 -206 68 l-33 17 28 93 c38 126 114 277 200 397 39 55 74 100
78 99 13 -1 126 -57 224 -111 53 -29 108 -53 122 -53 26 0 66 41 66 68 0 28
-68 78 -199 146 l-132 67 31 39 c46 59 168 168 256 232 78 55 250 148 276 148
7 0 62 -37 122 -82 149 -115 149 -114 180 -100 36 16 53 55 38 87 -6 13 -46
52 -89 86 -43 34 -79 65 -81 69 -2 4 39 15 90 24 51 9 104 18 118 20 14 3 102
3 195 1 131 -2 189 -8 252 -24z m-5526 -336 c126 -19 219 -50 352 -116 242
-122 303 -196 277 -342 -14 -78 -44 -129 -109 -188 -55 -50 -63 -77 -35 -117
18 -27 64 -29 104 -5 26 15 30 15 64 -6 43 -27 144 -143 162 -187 27 -64 46
-177 42 -239 -6 -72 -23 -107 -83 -175 -59 -66 -59 -93 -3 -186 37 -60 43 -78
46 -140 6 -102 -22 -164 -94 -210 -29 -19 -57 -34 -62 -34 -22 0 -72 -70 -89
-125 -21 -70 -67 -122 -143 -160 -64 -33 -248 -76 -324 -77 -50 -1 -65 -6
-105 -35 -55 -40 -150 -87 -210 -103 -104 -28 -289 38 -390 139 -42 42 -116
152 -157 233 -72 142 -158 460 -170 628 -8 105 10 346 37 505 35 211 149 512
254 670 80 120 213 235 313 271 50 18 201 17 323 -1z m7629 -1650 c49 -19 99
-35 110 -35 17 0 190 -47 196 -53 3 -4 -72 -241 -83 -262 -6 -11 -21 -60 -32
-108 -12 -49 -28 -98 -35 -109 -15 -21 -15 -21 -20 3 -3 13 -7 51 -11 84 -11
120 -81 295 -174 438 -28 42 -48 77 -46 77 3 0 46 -16 95 -35z m-3420 -568
c98 -70 156 -98 269 -132 256 -76 567 -115 693 -86 36 9 37 8 115 -73 43 -44
126 -138 185 -208 59 -69 142 -157 183 -194 l76 -69 -48 -12 c-65 -17 -301
-58 -443 -77 -219 -29 -756 -85 -925 -96 -93 -6 -236 -15 -318 -20 -81 -6
-186 -10 -232 -10 l-85 0 0 58 c-3 414 -9 714 -15 746 -7 34 -6 38 11 32 11
-3 48 -10 83 -15 89 -14 122 3 245 127 55 56 104 98 110 95 6 -4 49 -33 96
-66z m-58 -1239 c26 -104 33 -145 25 -150 -24 -16 -1077 -2 -1093 14 -3 4 -34
222 -34 243 0 1 170 5 378 10 207 4 420 11 472 15 52 3 122 7 156 8 l60 2 36
-142z m389 -4333 c45 -210 130 -643 224 -1130 26 -134 43 -175 71 -175 17 0
104 -42 104 -50 0 -13 -128 -233 -250 -430 -70 -113 -147 -241 -170 -285 -24
-44 -74 -132 -112 -196 -37 -64 -68 -123 -68 -131 0 -8 -7 -23 -15 -34 -15
-18 -15 -18 -10 6 35 172 45 555 21 799 -21 217 -22 201 17 201 46 0 117 57
147 117 l23 46 -6 526 c-4 289 -9 614 -12 721 -2 107 -2 186 1 175 3 -11 19
-83 35 -160z"/>
<path d="M6515 20575 c-52 -51 -24 -92 94 -134 46 -17 96 -39 110 -48 14 -9
68 -36 118 -59 132 -60 159 -77 343 -225 294 -236 355 -265 421 -200 38 39 38
79 -2 150 -49 86 -83 125 -170 190 -130 98 -285 179 -454 238 -78 27 -399 113
-421 113 -8 0 -26 -11 -39 -25z"/>
<path d="M11530 20509 c-394 -71 -445 -83 -607 -139 -230 -80 -519 -217 -602
-286 -77 -64 -93 -138 -41 -191 53 -54 130 -53 241 2 36 18 128 69 205 113
327 186 593 310 734 341 25 6 98 11 162 11 108 0 119 2 138 22 11 12 20 29 20
39 0 25 -39 69 -62 69 -11 0 -31 9 -45 20 -14 11 -28 20 -32 19 -3 -1 -53 -10
-111 -20z"/>
<path d="M12350 20129 c-221 -25 -338 -74 -553 -232 -66 -48 -157 -147 -157
-170 0 -7 -9 -23 -19 -36 -19 -25 -29 -28 -226 -85 -287 -82 -501 -189 -704
-349 -40 -32 -113 -113 -196 -216 -169 -212 -215 -281 -316 -471 -85 -161
-100 -212 -67 -233 15 -10 35 5 130 99 62 61 128 121 147 134 l34 24 -6 -25
c-4 -13 -12 -95 -18 -181 -15 -205 -2 -370 51 -618 110 -512 183 -603 547
-685 166 -37 371 -58 493 -52 94 5 161 15 473 72 178 32 372 92 484 148 122
62 272 319 338 580 27 106 61 322 70 442 8 101 -10 419 -29 506 -20 92 -131
408 -177 506 -21 45 -39 84 -39 86 0 5 51 -2 145 -20 203 -38 560 -144 675
-201 153 -75 179 -279 82 -642 -5 -19 -22 -66 -37 -105 -36 -94 -39 -109 -26
-134 8 -14 21 -21 41 -21 23 0 45 15 100 70 38 39 88 96 109 128 127 183 170
245 218 317 65 96 173 308 173 338 -1 84 -137 192 -424 337 -151 75 -207 108
-215 126 -39 87 -251 309 -370 388 -209 139 -475 203 -731 175z m-123 -1100
c32 -12 138 -112 158 -149 19 -37 28 -140 15 -174 -6 -16 -29 -51 -51 -77 -47
-57 -118 -88 -219 -96 -57 -4 -69 -2 -100 19 -79 53 -123 224 -85 337 22 67
56 99 135 126 74 26 107 29 147 14z"/>
<path d="M5815 20034 c-197 -26 -362 -99 -455 -201 -49 -53 -90 -122 -90 -150
0 -18 -18 -17 -145 9 -122 24 -156 21 -181 -17 -31 -47 -7 -113 180 -490 95
-192 176 -362 180 -376 3 -15 22 -41 41 -58 46 -40 91 -42 126 -5 24 25 24 28
24 227 0 219 7 257 56 288 34 22 231 89 262 89 l26 0 -40 -74 c-47 -88 -83
-190 -107 -305 -27 -134 -23 -518 7 -661 12 -58 26 -118 31 -135 118 -370 205
-538 349 -667 43 -39 63 -48 148 -71 154 -41 252 -56 437 -68 328 -21 714 1
782 46 32 21 39 37 57 140 9 50 28 153 42 230 37 208 55 412 55 621 l0 187 21
-19 c12 -10 55 -61 96 -111 74 -91 104 -111 117 -77 18 47 -92 307 -197 464
-99 149 -386 405 -576 516 -73 42 -82 51 -92 88 -43 157 -73 217 -149 294
-148 150 -439 265 -745 292 -123 11 -136 11 -260 -6z m1349 -1236 c38 -37 76
-121 76 -168 0 -43 -20 -77 -80 -135 -50 -49 -52 -50 -114 -50 -59 0 -66 2
-107 39 -24 22 -52 51 -61 65 -32 47 -17 184 25 230 34 37 75 50 155 51 68 0
74 -2 106 -32z"/>
<path d="M8218 17419 c-22 -12 -23 -57 -3 -95 8 -16 18 -51 21 -77 9 -66 53
-97 88 -61 45 45 -19 245 -78 244 -6 0 -19 -5 -28 -11z"/>
<path d="M9010 16897 c-3 -3 -93 -10 -200 -17 -107 -6 -242 -18 -300 -26 -95
-13 -375 -66 -411 -78 -151 -49 -314 -117 -375 -158 -101 -68 -114 -92 -121
-225 -4 -93 -1 -123 20 -214 61 -254 167 -445 349 -631 165 -169 432 -352 609
-418 73 -28 149 -23 186 11 42 41 23 73 -57 93 -143 37 -277 108 -454 241
-109 81 -243 216 -318 320 -131 181 -212 457 -178 601 12 48 20 61 59 91 l46
35 8 -40 c23 -117 205 -227 432 -261 39 -6 114 -18 168 -26 155 -25 514 -48
742 -48 288 -1 668 27 855 63 104 20 229 50 284 70 33 11 60 19 62 18 7 -8
-38 -214 -61 -278 -60 -167 -122 -256 -283 -411 -96 -93 -139 -126 -228 -175
-133 -76 -180 -95 -314 -133 -129 -37 -290 -61 -402 -61 -72 0 -90 -3 -112
-21 -36 -28 -33 -73 6 -102 27 -20 33 -20 175 -9 410 32 709 157 966 402 149
142 196 205 273 365 82 171 116 305 118 464 l1 113 -35 29 c-85 72 -234 153
-450 246 -89 38 -442 124 -611 149 -109 16 -439 31 -449 21z m415 -152 c274
-32 555 -118 805 -246 148 -75 146 -72 59 -99 -240 -73 -517 -106 -964 -116
-470 -11 -1055 53 -1209 133 -86 44 -121 95 -106 153 17 67 469 163 860 183
174 9 438 5 555 -8z"/>
<path d="M6928 14973 c-93 -3 -127 -7 -131 -17 -6 -14 9 -100 23 -131 5 -11
14 -45 22 -75 7 -30 19 -60 28 -67 10 -8 60 -12 152 -13 130 0 137 1 143 21 7
20 -18 137 -36 171 -5 10 -9 26 -9 37 0 20 -47 83 -58 79 -4 -1 -64 -4 -134
-5z"/>
<path d="M13440 14790 c-63 -47 -97 -79 -102 -96 -5 -19 3 -47 29 -103 19 -42
42 -91 50 -109 29 -61 45 -60 135 5 104 74 138 107 138 130 0 10 -25 69 -55
131 -46 94 -58 112 -77 112 -13 0 -66 -32 -118 -70z"/>
<path d="M11719 14607 c-126 -85 -133 -98 -93 -185 50 -110 78 -161 92 -167
17 -6 57 14 154 79 70 46 77 54 78 84 0 63 -92 264 -119 261 -3 0 -54 -32
-112 -72z"/>
<path d="M8552 14388 c-10 -13 6 -119 21 -134 4 -4 7 -17 7 -28 0 -43 36 -121
60 -133 20 -10 238 -48 274 -48 19 0 30 33 19 57 -10 21 -20 56 -56 196 -16
63 -47 78 -187 91 -63 6 -118 11 -121 11 -4 0 -11 -6 -17 -12z"/>
<path d="M9507 14334 c-8 -9 -146 -34 -183 -34 -46 0 -59 -20 -44 -67 7 -21
16 -46 21 -55 5 -10 9 -25 9 -33 0 -8 4 -23 9 -33 6 -9 12 -29 16 -45 9 -45
39 -67 89 -67 25 0 47 4 50 9 3 4 30 11 60 15 68 8 104 23 112 48 9 29 -64
246 -86 258 -21 11 -44 13 -53 4z"/>
<path d="M11000 14230 c-8 -5 -54 -22 -103 -37 -94 -29 -126 -56 -108 -90 5
-10 22 -64 37 -121 23 -84 31 -103 49 -108 22 -5 198 48 226 69 35 27 40 53
23 119 -9 35 -20 72 -24 83 -5 11 -11 33 -15 50 -4 16 -12 33 -18 37 -17 11
-49 10 -67 -2z"/>
<path d="M14668 10809 c-117 -76 -130 -96 -85 -133 12 -11 54 -48 93 -83 96
-85 107 -85 242 8 62 44 102 78 102 89 0 25 -193 190 -222 190 -13 0 -71 -32
-130 -71z"/>
<path d="M14735 9768 c-22 -16 -66 -47 -98 -69 -92 -64 -91 -68 16 -176 107
-107 121 -111 190 -58 25 19 51 35 56 35 6 0 11 3 11 8 0 4 18 18 41 32 22 14
45 36 50 49 9 22 1 32 -82 110 -51 47 -104 89 -118 92 -19 4 -37 -3 -66 -23z"/>
<path d="M15358 9203 c-19 -16 -65 -48 -101 -73 -53 -36 -67 -50 -67 -71 0
-15 8 -33 19 -40 10 -8 53 -42 95 -76 95 -77 113 -79 199 -20 34 23 67 47 75
54 7 7 26 20 42 30 18 10 30 26 30 38 0 27 -198 185 -233 185 -13 0 -40 -12
-59 -27z"/>
<path d="M7013 13709 c-30 -11 -36 -40 -20 -101 31 -112 100 -334 113 -359 20
-40 63 -53 146 -45 94 9 122 22 126 63 4 45 -20 55 -111 47 l-73 -6 -13 43
c-34 119 -93 316 -101 335 -10 25 -37 34 -67 23z"/>
<path d="M6561 13624 c-20 -15 -22 -22 -17 -63 12 -87 86 -364 103 -383 37
-41 94 -6 107 67 4 19 12 35 18 35 6 0 46 -19 88 -42 69 -37 81 -41 104 -30
19 8 26 19 26 40 0 35 -14 48 -112 102 -43 23 -78 43 -78 45 0 1 16 37 35 79
19 43 35 88 35 100 0 31 -22 48 -57 44 -24 -3 -34 -15 -70 -88 -23 -47 -44
-89 -46 -95 -8 -19 -16 1 -36 90 -25 111 -48 135 -100 99z"/>
<path d="M6185 13586 c-56 -26 -135 -105 -135 -136 0 -25 43 -54 68 -46 17 6
23 -6 50 -92 61 -190 88 -230 138 -197 31 20 31 47 0 129 -24 63 -22 86 9 86
22 0 94 59 110 89 23 46 19 95 -12 132 -53 62 -141 76 -228 35z m139 -95 c10
-16 -3 -36 -35 -55 -34 -20 -43 -15 -53 26 -4 17 -1 28 7 31 21 9 76 7 81 -2z"/>
</g>
</svg>
